<svg width="25" height="30" viewBox="0 0 25 30" fill="none" xmlns="http://www.w3.org/2000/svg">
<path d="M16.4171 4.75184C17.4398 3.47267 18.1338 1.75513 17.9508 0C16.4537 0.0744412 14.6268 0.987674 13.5691 2.26784C12.6194 3.36411 11.7789 5.15357 11.998 6.83512C13.6786 6.9809 15.3575 5.99511 16.4171 4.75184Z" fill="black"/>
<path d="M17.9317 7.16342C15.4912 7.01805 13.4161 8.54856 12.2506 8.54856C11.0845 8.54856 9.29971 7.23668 7.36936 7.27204C4.85688 7.30894 2.5256 8.72952 1.25062 10.9889C-1.37179 15.5088 0.558569 22.2133 3.10872 25.8945C4.34713 27.7157 5.83963 29.721 7.80622 29.6489C9.66432 29.576 10.3926 28.4458 12.6512 28.4458C14.9082 28.4458 15.5642 29.6489 17.5311 29.6125C19.5708 29.576 20.846 27.7904 22.0844 25.9674C23.5051 23.8913 24.0867 21.8867 24.1233 21.7767C24.0867 21.7402 20.1901 20.2454 20.154 15.7631C20.1172 12.01 23.2132 10.2248 23.359 10.1141C21.6106 7.52825 18.8788 7.23668 17.9317 7.16342Z" fill="black"/>
</svg>
