<svg width="45" height="18" viewBox="0 0 45 18" fill="none" xmlns="http://www.w3.org/2000/svg">
<g clip-path="url(#clip0_8_2429)">
<path d="M8.51649 2.32065C8.00269 2.92864 7.18062 3.40818 6.35854 3.33968C6.25578 2.5176 6.65826 1.64415 7.12924 1.10466C7.64304 0.479543 8.54218 0.0342531 9.27006 0C9.35569 0.856327 9.02172 1.69553 8.51649 2.32065ZM9.26149 3.50238C8.0712 3.43387 7.05217 4.17888 6.48699 4.17888C5.91325 4.17888 5.04836 3.53663 4.1064 3.55376C2.88185 3.57088 1.74294 4.26451 1.11782 5.36917C-0.166671 7.5785 0.783852 10.8497 2.02553 12.648C2.63352 13.5385 3.3614 14.5147 4.32048 14.4805C5.22819 14.4462 5.58785 13.8896 6.68395 13.8896C7.78861 13.8896 8.10545 14.4805 9.06454 14.4634C10.0579 14.4462 10.683 13.5728 11.291 12.6822C11.9846 11.6717 12.2672 10.687 12.2843 10.6356C12.2672 10.6185 10.3662 9.89058 10.349 7.69838C10.3319 5.86584 11.8476 4.99239 11.9161 4.94101C11.0598 3.67364 9.72391 3.53663 9.26149 3.50238ZM16.1378 1.01903V14.3692H18.2101V9.80495H21.0788C23.6992 9.80495 25.5403 8.00666 25.5403 5.40343C25.5403 2.80019 23.7334 1.01903 21.1473 1.01903H16.1378ZM18.2101 2.76594H20.5993C22.3976 2.76594 23.4252 3.72502 23.4252 5.41199C23.4252 7.09895 22.3976 8.0666 20.5907 8.0666H18.2101V2.76594ZM29.3252 14.4719C30.6269 14.4719 31.8343 13.8126 32.3823 12.7678H32.4252V14.3692H34.3433V7.72407C34.3433 5.79734 32.8019 4.55566 30.4299 4.55566C28.2291 4.55566 26.6021 5.81446 26.5422 7.54424H28.409C28.5631 6.72217 29.3252 6.18268 30.37 6.18268C31.6373 6.18268 32.3481 6.77355 32.3481 7.86109V8.59753L29.762 8.75167C27.3557 8.89724 26.0541 9.88202 26.0541 11.5947C26.0541 13.3245 27.3985 14.4719 29.3252 14.4719ZM29.8819 12.8877C28.7772 12.8877 28.075 12.3568 28.075 11.5433C28.075 10.7041 28.7515 10.216 30.0446 10.1389L32.3481 9.99334V10.7469C32.3481 11.9971 31.2862 12.8877 29.8819 12.8877ZM36.9037 18C38.9247 18 39.8752 17.2293 40.7058 14.8915L44.3452 4.68411H42.2387L39.7981 12.5709H39.7553L37.3148 4.68411H35.1483L38.6592 14.4034L38.4708 14.9943C38.154 15.9962 37.6402 16.3815 36.7239 16.3815C36.5612 16.3815 36.2444 16.3644 36.1159 16.3473V17.9486C36.2358 17.9829 36.7496 18 36.9037 18Z" fill="black"/>
</g>
<defs>
<clipPath id="clip0_8_2429">
<rect width="43.844" height="18" fill="white" transform="translate(0.5)"/>
</clipPath>
</defs>
</svg>
