<svg width="26" height="26" viewBox="0 0 26 26" fill="none" xmlns="http://www.w3.org/2000/svg">
<path d="M5.76547 15.6322L4.88293 18.98L1.60896 19.0623C0.62323 17.2512 0.0599442 15.1769 0.0511726 12.9703C0.0426906 10.8364 0.553633 8.82214 1.46645 7.04668L1.46715 7.04668L4.38427 7.56951L5.67273 10.4619C5.40857 11.2422 5.26622 12.0792 5.26968 12.9495C5.27354 13.8941 5.44824 14.7984 5.76547 15.6322Z" fill="#FBBB00"/>
<path d="M25.5527 10.465C25.7035 11.2429 25.7838 12.0465 25.7871 12.868C25.7907 13.7893 25.6974 14.6883 25.5164 15.5559C24.9017 18.5081 23.2751 21.0903 21.0149 22.9221L21.0142 22.9214L17.3419 22.7486L16.8094 19.5068C18.3104 18.6185 19.4807 17.233 20.0935 15.5775L13.2127 15.6048L13.1924 10.5142L20.1737 10.4864L25.5527 10.465Z" fill="#518EF8"/>
<path d="M21.0143 22.9216L21.015 22.9223C18.8169 24.7036 16.0198 25.7752 12.9704 25.7874C8.06998 25.8069 3.79854 23.0848 1.60909 19.0626L5.76559 15.6325C6.86381 18.5284 9.66974 20.5818 12.9497 20.5688C14.3595 20.5632 15.6787 20.1768 16.8094 19.507L21.0143 22.9216Z" fill="#28B446"/>
<path d="M21.0934 2.98094L16.9383 6.41033C15.7625 5.68182 14.3743 5.2638 12.8888 5.2697C9.53465 5.28304 6.69318 7.45362 5.67287 10.4619L1.46723 7.04668L1.46653 7.04668C3.59173 2.90911 7.8948 0.0709104 12.8681 0.0511415C15.9903 0.0387305 18.8575 1.13952 21.0934 2.98094Z" fill="#F14336"/>
</svg>
