<svg width="41" height="26" viewBox="0 0 41 26" fill="none" xmlns="http://www.w3.org/2000/svg">
<rect x="0.75" y="0.25" width="39.5" height="25.5" rx="1.75" fill="white"/>
<path fill-rule="evenodd" clip-rule="evenodd" d="M20.0209 18.5463C18.6947 19.6921 16.9744 20.3838 15.0946 20.3838C10.9002 20.3838 7.49988 16.94 7.49988 12.6919C7.49988 8.44378 10.9002 5 15.0946 5C16.9744 5 18.6947 5.69169 20.0209 6.83748C21.3471 5.6917 23.0674 5.00001 24.9472 5.00001C29.1417 5.00001 32.542 8.44379 32.542 12.6919C32.542 16.94 29.1417 20.3838 24.9472 20.3838C23.0674 20.3838 21.3471 19.6921 20.0209 18.5463Z" fill="#ED0006"/>
<path fill-rule="evenodd" clip-rule="evenodd" d="M20.0208 18.5463C21.6537 17.1355 22.6892 15.0362 22.6892 12.6919C22.6892 10.3476 21.6537 8.2483 20.0208 6.83746C21.3469 5.69168 23.0672 5 24.947 5C29.1415 5 32.5418 8.44378 32.5418 12.6919C32.5418 16.94 29.1415 20.3838 24.947 20.3838C23.0672 20.3838 21.3469 19.6921 20.0208 18.5463Z" fill="#F9A000"/>
<path fill-rule="evenodd" clip-rule="evenodd" d="M20.0209 18.5463C21.6539 17.1355 22.6893 15.0362 22.6893 12.692C22.6893 10.3477 21.6539 8.24842 20.0209 6.83759C18.388 8.24842 17.3525 10.3477 17.3525 12.692C17.3525 15.0362 18.388 17.1355 20.0209 18.5463Z" fill="#FF5E00"/>
<rect x="0.75" y="0.25" width="39.5" height="25.5" rx="1.75" stroke="#B2B2B2" stroke-width="0.5" style="mix-blend-mode:multiply"/>
</svg>
